<svg width="50" height="50" viewBox="0 0 50 50" fill="none" xmlns="http://www.w3.org/2000/svg">
<g clip-path="url(#clip0_502_40254)">
<path d="M7.32495 42.6756C4.9372 40.3694 3.03264 37.6108 1.72242 34.5607C0.412194 31.5106 -0.277462 28.2301 -0.306307 24.9106C-0.335152 21.5911 0.29739 18.2991 1.55441 15.2267C2.81143 12.1543 4.66776 9.36301 7.01508 7.01569C9.3624 4.66837 12.1537 2.81204 15.2261 1.55502C18.2985 0.298 21.5905 -0.334542 24.91 -0.305697C28.2295 -0.276851 31.51 0.412804 34.5601 1.72303C37.6102 3.03325 40.3688 4.93781 42.675 7.32556C47.2289 12.0406 49.7488 18.3557 49.6918 24.9106C49.6348 31.4655 47.0056 37.7358 42.3704 42.371C37.7352 47.0062 31.4649 49.6355 24.91 49.6924C18.3551 49.7494 12.04 47.2295 7.32495 42.6756ZM10.85 39.1506C14.6028 42.9034 19.6927 45.0117 25 45.0117C30.3072 45.0117 35.3971 42.9034 39.15 39.1506C42.9028 35.3978 45.0111 30.3078 45.0111 25.0006C45.0111 19.6933 42.9028 14.6034 39.15 10.8506C35.3971 7.09775 30.3072 4.98944 25 4.98944C19.6927 4.98944 14.6028 7.09775 10.85 10.8506C7.09714 14.6034 4.98883 19.6933 4.98883 25.0006C4.98883 30.3078 7.09714 35.3978 10.85 39.1506ZM35.6 17.9256L28.525 25.0006L35.6 32.0756L32.075 35.6006L25 28.5256L17.925 35.6006L14.4 32.0756L21.475 25.0006L14.4 17.9256L17.925 14.4006L25 21.4756L32.075 14.4006L35.6 17.9256Z" fill="#666666"/>
</g>
<defs>
<clipPath id="clip0_502_40254">
<rect width="50" height="50" fill="white"/>
</clipPath>
</defs>
</svg>
