<svg width="101" height="102" viewBox="0 0 101 102" fill="none" xmlns="http://www.w3.org/2000/svg">
<path d="M94.0007 30.424C94.0427 30.424 94.0847 30.425 94.1257 30.426C96.8557 30.494 99.0127 32.762 98.9447 35.491C98.8787 38.134 96.7377 40.24 94.1257 40.31C93.1547 40.334 92.4177 40.593 91.7467 40.918C91.0907 41.258 90.5227 41.685 90.0387 42.198C89.5507 42.706 89.1487 43.299 88.8557 44.002C88.7227 44.325 88.6117 44.669 88.5307 45.042C88.8867 45.597 89.2197 46.168 89.5037 46.77C90.1777 48.196 89.8187 49.9 88.7037 51.015L50.6727 89.046C49.9387 89.78 48.9497 90.186 47.9527 90.186C47.4347 90.186 46.9147 90.076 46.4267 89.846C45.5507 89.432 44.7257 88.932 43.9507 88.368C43.6717 88.579 43.4117 88.81 43.1737 89.062C42.6857 89.57 42.2837 90.163 41.9907 90.866C41.7007 91.572 41.4937 92.36 41.5437 93.407C41.6997 96.646 39.2007 99.398 35.9617 99.553C35.8657 99.558 35.7697 99.56 35.6747 99.56C32.5617 99.56 29.9667 97.114 29.8157 93.971C29.6597 90.732 32.1587 87.98 35.3977 87.825C35.4887 87.821 35.5827 87.818 35.6757 87.818C35.7727 87.818 35.8687 87.82 35.9627 87.825C36.0687 87.83 36.1717 87.833 36.2727 87.833C37.1677 87.833 37.8687 87.639 38.5037 87.379C39.2067 87.086 39.7997 86.684 40.3077 86.196C40.5407 85.976 40.7507 85.733 40.9487 85.478C40.2257 84.566 39.5947 83.577 39.0917 82.511C38.4177 81.085 38.7767 79.381 39.8917 78.266L77.9187 40.239C78.6547 39.503 79.6317 39.124 80.6257 39.124C81.2157 39.124 81.8117 39.258 82.3667 39.53C83.1117 39.895 83.8197 40.323 84.4907 40.798C84.8007 40.721 85.0937 40.627 85.3687 40.515C86.0717 40.222 86.6647 39.819 87.1727 39.332C87.6847 38.849 88.1127 38.28 88.4527 37.624C88.7777 36.953 89.0367 36.217 89.0607 35.245C89.1277 32.557 91.3277 30.424 94.0007 30.424ZM94.0007 28.424C90.2037 28.424 87.1557 31.398 87.0617 35.195C87.0467 35.809 86.8927 36.253 86.6647 36.727C86.4317 37.172 86.1487 37.549 85.8007 37.877C85.4857 38.179 85.1537 38.411 84.7807 38.588C84.2777 38.273 83.7647 37.988 83.2477 37.734C82.4337 37.335 81.5277 37.124 80.6267 37.124C79.0657 37.124 77.6027 37.728 76.5057 38.825L38.4787 76.852C36.7437 78.587 36.2637 81.205 37.2847 83.366C37.5837 83.998 37.9297 84.622 38.3187 85.23C38.1347 85.347 37.9407 85.447 37.7357 85.533C37.2267 85.742 36.7867 85.833 36.2747 85.833C36.2047 85.833 36.1337 85.831 36.0607 85.828C35.9317 85.822 35.8047 85.819 35.6777 85.819C35.5527 85.819 35.4277 85.822 35.3037 85.828C30.9687 86.037 27.6117 89.733 27.8197 94.068C28.0217 98.269 31.4737 101.561 35.6767 101.561C35.8037 101.561 35.9317 101.558 36.0597 101.552C38.1597 101.451 40.0947 100.538 41.5077 98.982C42.9207 97.426 43.6437 95.412 43.5427 93.312C43.5067 92.559 43.6647 92.057 43.8417 91.627C43.9437 91.382 44.0687 91.152 44.2187 90.936C44.6657 91.2 45.1177 91.44 45.5737 91.656C46.3207 92.009 47.1217 92.188 47.9537 92.188C49.4837 92.188 50.9907 91.559 52.0877 90.462L90.1187 52.431C91.8537 50.696 92.3337 48.078 91.3127 45.917C91.1357 45.543 90.9347 45.162 90.7057 44.766L90.7067 44.763C90.8887 44.326 91.1447 43.937 91.4827 43.584C91.8227 43.224 92.1997 42.94 92.6447 42.707C93.1187 42.479 93.5627 42.325 94.1767 42.31C97.8817 42.211 100.853 39.238 100.946 35.542C100.992 33.688 100.314 31.927 99.0347 30.583C97.7567 29.239 96.0307 28.474 94.1767 28.428L94.0007 28.424Z" fill="#333333"/>
<path d="M49.2378 88.437C45.2498 86.881 42.0878 83.728 40.5198 79.746" stroke="#333333" stroke-width="2" stroke-miterlimit="10" stroke-linecap="round" stroke-linejoin="round"/>
<path d="M88.0948 49.58C86.5388 45.592 83.3858 42.43 79.4048 40.862" stroke="#333333" stroke-width="2" stroke-miterlimit="10" stroke-linecap="round" stroke-linejoin="round"/>
<path d="M74.5425 47.706L77.0275 45.221" stroke="#333333" stroke-width="2" stroke-miterlimit="10" stroke-linecap="round" stroke-linejoin="round"/>
<path d="M63.3916 58.857L72.5616 49.688" stroke="#333333" stroke-width="2" stroke-miterlimit="10" stroke-linecap="round" stroke-linejoin="round"/>
<path d="M83.7499 22.886C83.2139 20.64 81.4199 18.882 79.1499 18.41C81.4209 17.938 83.2149 16.181 83.7499 13.934C84.2859 16.18 86.0799 17.938 88.3499 18.41C86.0799 18.882 84.2859 20.64 83.7499 22.886Z" stroke="#333333" stroke-width="2" stroke-miterlimit="10" stroke-linecap="round" stroke-linejoin="round"/>
<path d="M42.7677 9.952C42.2317 7.706 40.4377 5.94801 38.1677 5.47601C40.4387 5.00401 42.2327 3.247 42.7677 1C43.3037 3.246 45.0977 5.00401 47.3677 5.47601C45.0977 5.94801 43.3037 7.705 42.7677 9.952Z" stroke="#333333" stroke-width="2" stroke-miterlimit="10" stroke-linecap="round" stroke-linejoin="round"/>
<path d="M6.39981 60.147C5.86381 57.901 4.0698 56.143 1.7998 55.671C4.0708 55.199 5.86481 53.442 6.39981 51.195C6.93581 53.441 8.72982 55.199 10.9998 55.671C8.72982 56.143 6.93581 57.9 6.39981 60.147Z" stroke="#333333" stroke-width="2" stroke-miterlimit="10" stroke-linecap="round" stroke-linejoin="round"/>
<path d="M22.8478 78.678C22.3118 76.432 20.5178 74.674 18.2478 74.202C20.5178 73.73 22.3118 71.972 22.8478 69.726C23.3838 71.972 25.1778 73.73 27.4478 74.202C25.1778 74.674 23.3838 76.431 22.8478 78.678Z" stroke="#333333" stroke-width="2" stroke-miterlimit="10" stroke-linecap="round" stroke-linejoin="round"/>
<path d="M73.7039 42.715C74.6869 40.248 75.3689 37.731 75.6419 35.194C77.0079 22.509 68.4579 15.053 58.1789 15.053C52.4499 15.053 46.2589 18.048 42.7689 23.224C39.2789 18.049 33.0879 15.053 27.3589 15.053C17.0799 15.053 8.52988 22.509 9.89588 35.194C11.8669 53.5 34.9039 70.772 41.2269 75.193L73.7039 42.715Z" stroke="#333333" stroke-width="2" stroke-miterlimit="10" stroke-linecap="round" stroke-linejoin="round"/>
<path d="M42.7679 33.848C43.1609 33.848 43.5549 34.054 43.7549 34.465L45.6759 38.417C45.8359 38.746 46.1489 38.974 46.5109 39.024L50.8639 39.63C51.7699 39.756 52.1329 40.872 51.4739 41.507L48.3089 44.556C48.0459 44.81 47.9259 45.178 47.9899 45.538L48.7589 49.865C48.8849 50.577 48.3199 51.156 47.6789 51.156C47.5079 51.156 47.3319 51.115 47.1629 51.024L43.2849 48.956C43.1239 48.87 42.9459 48.827 42.7689 48.827C42.5919 48.827 42.4139 48.87 42.2529 48.956L38.3749 51.024C38.2049 51.114 38.0289 51.156 37.8589 51.156C37.2179 51.156 36.6519 50.576 36.7789 49.865L37.5479 45.538C37.6119 45.178 37.4919 44.81 37.2289 44.556L34.0639 41.507C33.4049 40.872 33.7669 39.757 34.6739 39.63L39.0269 39.024C39.3889 38.974 39.7019 38.746 39.8619 38.417L41.7829 34.465C41.9819 34.054 42.3749 33.848 42.7679 33.848ZM42.7679 31.848C41.5729 31.848 40.5049 32.516 39.9829 33.591L38.2719 37.11L34.3959 37.649C33.2119 37.814 32.2469 38.622 31.8779 39.759C31.5089 40.896 31.8139 42.117 32.6749 42.947L35.4929 45.662L34.8079 49.515C34.6469 50.42 34.8919 51.341 35.4789 52.042C36.0719 52.75 36.9389 53.156 37.8569 53.156C38.3599 53.156 38.8649 53.029 39.3149 52.789L42.7679 50.947L46.2209 52.789C46.6709 53.029 47.1749 53.156 47.6789 53.156C48.5969 53.156 49.4639 52.75 50.0569 52.042C50.6439 51.341 50.8889 50.42 50.7279 49.515L50.0429 45.662L52.8609 42.947C53.7219 42.118 54.0269 40.896 53.6579 39.759C53.2889 38.622 52.3239 37.813 51.1399 37.649L47.2639 37.11L45.5539 33.591C45.0309 32.516 43.9639 31.848 42.7679 31.848Z" fill="#333333"/>
<path d="M62.2679 25.964C63.8127 25.964 65.0649 24.7117 65.0649 23.167C65.0649 21.6223 63.8127 20.37 62.2679 20.37C60.7232 20.37 59.4709 21.6223 59.4709 23.167C59.4709 24.7117 60.7232 25.964 62.2679 25.964Z" stroke="#333333" stroke-width="2" stroke-miterlimit="10" stroke-linecap="round" stroke-linejoin="round"/>
</svg>
