<svg width="101" height="86" viewBox="0 0 101 86" fill="none" xmlns="http://www.w3.org/2000/svg">
<path d="M45.8204 53.803C49.4284 47.439 45.3744 41.403 40.9124 36.964C36.7184 32.791 32.5934 27.366 31.9914 21.771C31.2274 14.677 36.0094 10.508 41.7574 10.508C44.9614 10.508 48.4234 12.183 50.3754 15.077C52.3274 12.183 55.7894 10.508 58.9934 10.508C64.7414 10.508 69.5224 14.677 68.7594 21.771C67.7674 30.983 58.9654 38.058 52.8814 44.295" stroke="#333333" stroke-width="2" stroke-miterlimit="10" stroke-linecap="round" stroke-linejoin="round"/>
<path d="M28.1063 34.786C28.1063 34.786 23.1583 38.487 28.1063 44.294C30.8133 47.471 31.1663 51.318 28.1063 53.803" stroke="#333333" stroke-width="2" stroke-miterlimit="10" stroke-linecap="round" stroke-linejoin="round"/>
<path d="M77.0502 1C77.0502 1 72.1022 4.701 77.0502 10.508C79.7572 13.685 80.1102 17.532 77.0502 20.017" stroke="#333333" stroke-width="2" stroke-miterlimit="10" stroke-linecap="round" stroke-linejoin="round"/>
<path d="M97.2873 60.146H3.4603C2.1233 60.146 1.03931 61.23 1.03931 62.567C1.03931 63.904 2.1233 64.988 3.4603 64.988H6.1723C8.1283 68.235 10.6823 71.234 13.7463 73.891C21.5993 80.701 31.7823 84.217 42.1773 84.217H58.5713C68.9663 84.217 79.1483 80.701 87.0023 73.891C90.0663 71.234 92.6213 68.235 94.5763 64.988H97.2883C98.6253 64.988 99.7093 63.904 99.7093 62.567C99.7083 61.229 98.6243 60.146 97.2873 60.146Z" stroke="#333333" stroke-width="2" stroke-miterlimit="10" stroke-linecap="round" stroke-linejoin="round"/>
<path d="M14.3074 64.993H37.0544" stroke="#333333" stroke-width="2" stroke-miterlimit="10" stroke-linecap="round" stroke-linejoin="round"/>
<path d="M41.5215 64.993H47.5375" stroke="#333333" stroke-width="2" stroke-miterlimit="10" stroke-linecap="round" stroke-linejoin="round"/>
</svg>
