<svg width="30" height="30" viewBox="0 0 30 30" fill="none" xmlns="http://www.w3.org/2000/svg">
<path d="M12.75 4.5C14.2858 4.4999 15.7912 4.92853 17.0967 5.73761C18.4021 6.5467 19.4558 7.70413 20.1391 9.07959C20.8224 10.4551 21.1081 11.994 20.9642 13.523C20.8203 15.0521 20.2524 16.5107 19.3245 17.7345L25.545 23.955C25.7444 24.156 25.8607 24.4248 25.8707 24.7078C25.8807 24.9908 25.7836 25.2671 25.5988 25.4816C25.414 25.6962 25.1551 25.8331 24.8737 25.8652C24.5924 25.8972 24.3093 25.822 24.081 25.6545L23.955 25.545L17.7345 19.3245C16.6914 20.1153 15.475 20.6465 14.186 20.8742C12.897 21.1019 11.5722 21.0197 10.3213 20.6342C9.07035 20.2487 7.92908 19.5712 6.99177 18.6574C6.05447 17.7437 5.34805 16.62 4.93087 15.3793C4.5137 14.1386 4.39774 12.8164 4.59259 11.522C4.78744 10.2275 5.2875 8.99808 6.05145 7.93515C6.8154 6.87221 7.82131 6.00632 8.98607 5.409C10.1508 4.81169 11.441 4.50011 12.75 4.5ZM12.75 6.75C11.1587 6.75 9.63258 7.38214 8.50736 8.50736C7.38214 9.63258 6.75 11.1587 6.75 12.75C6.75 14.3413 7.38214 15.8674 8.50736 16.9926C9.63258 18.1179 11.1587 18.75 12.75 18.75C14.3413 18.75 15.8674 18.1179 16.9926 16.9926C18.1179 15.8674 18.75 14.3413 18.75 12.75C18.75 11.1587 18.1179 9.63258 16.9926 8.50736C15.8674 7.38214 14.3413 6.75 12.75 6.75Z" fill="#666666"/>
</svg>
